<?xml version="1.0" encoding="UTF-8"?>
<svg width="239px" height="344px" viewBox="0 0 239 344" version="1.1" xmlns="http://www.w3.org/2000/svg" xmlns:xlink="http://www.w3.org/1999/xlink">
    <g id="Page-1" stroke-width="1" fill-rule="evenodd">
        <g id="Group" transform="translate(-397.000000, -340.000000)" >
            <g id="etnetera-barevne" transform="translate(337.600000, 340.000000)">
                <path d="M148.310776,61.5219586 C153.755633,55.1956045 162.18348,52.6721318 170.01235,55.0240557 C177.841221,57.3759796 183.695424,64.1900195 185.086832,72.5701025 C186.478241,80.9501855 183.162356,89.4237617 176.54848,94.3894293 L160.807462,109.317784 L146.989011,93.0094973 C139.048745,83.9245724 139.639691,69.8468593 148.310776,61.5219586 M290.989399,220.296012 C285.913947,214.697694 278.824701,211.369164 271.296904,211.050027 C263.769107,210.730891 256.4263,213.447582 250.900066,218.596447 L189.679307,275.046256 C171.801375,291.524962 144.025288,290.329738 127.613291,272.375512 C111.222332,254.401872 112.411192,226.477087 130.269813,209.977229 L152.971002,188.975473 L171.808159,210.220024 C182.583872,220.787867 199.692629,221.057115 210.792072,210.833533 C221.891515,200.60995 223.118558,183.451785 213.588006,171.737037 L194.630098,150.978075 L210.327729,136.410383 C233.609527,114.927442 241.725346,81.4594007 230.890274,51.6144869 C220.055202,21.7695732 192.403384,1.42622795 160.83058,0.0718174036 C129.257777,-1.28259315 99.982765,16.6187042 86.6583026,45.4272219 C73.3338402,74.2357396 78.5843967,108.277172 99.9613112,131.675883 L114.451432,147.578947 L92.112496,168.337909 C62.0552185,195.969636 51.5390384,239.097099 65.4769646,277.571764 C79.4148909,316.046429 115.055605,342.273474 155.748275,344 L164.563098,344 C188.134274,342.955381 210.583195,333.58383 227.957375,317.535359 L289.178134,261.08555 C294.746642,255.982927 298.057447,248.855729 298.374885,241.287633 C298.692322,233.719536 295.990097,226.337419 290.868648,220.781601" id="Shape"></path>
            </g>
        </g>
    </g>
</svg>